<svg width="150" height="135" viewBox="0 0 150 135" fill="none" xmlns="http://www.w3.org/2000/svg">
<rect x="1" y="17" width="106" height="117" stroke="white" stroke-width="2"/>
<rect x="11" y="9" width="106" height="117" stroke="white" stroke-width="2"/>
<rect x="21" y="1" width="106" height="117" stroke="white" stroke-width="2"/>
<rect x="21" y="1" width="106" height="117" stroke="white" stroke-opacity="0.2" stroke-width="2"/>
<path d="M26.9325 74V64.5455H28.6452V68.5479H33.0263V64.5455H34.7436V74H33.0263V69.9837H28.6452V74H26.9325ZM40.1287 70.8239H41.6799L42.5985 72.0149L43.2541 72.7905L44.8283 74.8125H43.1664L42.0953 73.4553L41.6383 72.8089L40.1287 70.8239ZM45.0545 69.2727C45.0545 70.2914 44.8637 71.1639 44.4821 71.8903C44.1035 72.6135 43.5865 73.1675 42.9309 73.5522C42.2785 73.9369 41.5383 74.1293 40.7104 74.1293C39.8825 74.1293 39.1408 73.9369 38.4853 73.5522C37.8328 73.1644 37.3158 72.6089 36.9341 71.8857C36.5556 71.1593 36.3663 70.2884 36.3663 69.2727C36.3663 68.254 36.5556 67.383 36.9341 66.6598C37.3158 65.9335 37.8328 65.378 38.4853 64.9933C39.1408 64.6085 39.8825 64.4162 40.7104 64.4162C41.5383 64.4162 42.2785 64.6085 42.9309 64.9933C43.5865 65.378 44.1035 65.9335 44.4821 66.6598C44.8637 67.383 45.0545 68.254 45.0545 69.2727ZM43.3326 69.2727C43.3326 68.5556 43.2202 67.9509 42.9956 67.4585C42.774 66.9629 42.4662 66.589 42.0723 66.3366C41.6783 66.0812 41.2244 65.9535 40.7104 65.9535C40.1964 65.9535 39.7425 66.0812 39.3485 66.3366C38.9546 66.589 38.6453 66.9629 38.4206 67.4585C38.199 67.9509 38.0882 68.5556 38.0882 69.2727C38.0882 69.9898 38.199 70.5961 38.4206 71.0916C38.6453 71.584 38.9546 71.958 39.3485 72.2134C39.7425 72.4658 40.1964 72.592 40.7104 72.592C41.2244 72.592 41.6783 72.4658 42.0723 72.2134C42.4662 71.958 42.774 71.584 42.9956 71.0916C43.2202 70.5961 43.3326 69.9898 43.3326 69.2727ZM58.0037 67.7354H56.2772C56.2279 67.4523 56.1371 67.2015 56.0048 66.983C55.8725 66.7614 55.7078 66.5736 55.5108 66.4197C55.3139 66.2659 55.0892 66.1504 54.8368 66.0735C54.5875 65.9935 54.3182 65.9535 54.0289 65.9535C53.515 65.9535 53.0595 66.0827 52.6625 66.3413C52.2654 66.5967 51.9546 66.9722 51.7299 67.4677C51.5053 67.9601 51.3929 68.5618 51.3929 69.2727C51.3929 69.996 51.5053 70.6054 51.7299 71.1009C51.9577 71.5933 52.2685 71.9657 52.6625 72.218C53.0595 72.4673 53.5134 72.592 54.0243 72.592C54.3075 72.592 54.5721 72.555 54.8184 72.4812C55.0676 72.4042 55.2908 72.2919 55.4877 72.1442C55.6878 71.9964 55.8555 71.8149 55.9909 71.5994C56.1294 71.384 56.2248 71.1378 56.2772 70.8608L58.0037 70.87C57.9391 71.3194 57.7991 71.741 57.5836 72.1349C57.3713 72.5289 57.0927 72.8767 56.748 73.1783C56.4034 73.4768 56.0002 73.7107 55.5385 73.88C55.0769 74.0462 54.5645 74.1293 54.0012 74.1293C53.1703 74.1293 52.4286 73.9369 51.7761 73.5522C51.1236 73.1675 50.6097 72.612 50.2342 71.8857C49.8587 71.1593 49.671 70.2884 49.671 69.2727C49.671 68.254 49.8603 67.383 50.2388 66.6598C50.6174 65.9335 51.1329 65.378 51.7853 64.9933C52.4378 64.6085 53.1764 64.4162 54.0012 64.4162C54.5275 64.4162 55.0169 64.4901 55.4693 64.6378C55.9217 64.7855 56.3249 65.0025 56.6788 65.2887C57.0327 65.5719 57.3236 65.9196 57.5513 66.332C57.7821 66.7414 57.9329 67.2092 58.0037 67.7354ZM62.6375 74.1385C61.9266 74.1385 61.3126 73.9908 60.7955 73.6953C60.2816 73.3968 59.8861 72.9751 59.6091 72.4304C59.3321 71.8826 59.1936 71.2378 59.1936 70.4961C59.1936 69.7667 59.3321 69.1265 59.6091 68.5756C59.8892 68.0217 60.28 67.5908 60.7817 67.283C61.2834 66.9722 61.8727 66.8168 62.5498 66.8168C62.9868 66.8168 63.3992 66.8875 63.787 67.0291C64.1779 67.1676 64.5226 67.383 64.8211 67.6754C65.1227 67.9678 65.3597 68.3402 65.532 68.7926C65.7044 69.242 65.7906 69.7775 65.7906 70.3991V70.9116H59.9784V69.7852H64.1887C64.1856 69.4651 64.1163 69.1804 63.9809 68.9311C63.8455 68.6787 63.6562 68.4802 63.4131 68.3356C63.173 68.1909 62.893 68.1186 62.5729 68.1186C62.2313 68.1186 61.9312 68.2017 61.6727 68.3679C61.4142 68.531 61.2126 68.7464 61.0679 69.0142C60.9263 69.2789 60.854 69.5697 60.8509 69.8867V70.87C60.8509 71.2824 60.9263 71.6364 61.0771 71.9318C61.228 72.2242 61.4388 72.4489 61.7096 72.6058C61.9804 72.7597 62.2974 72.8366 62.6606 72.8366C62.9037 72.8366 63.1238 72.8028 63.3208 72.7351C63.5177 72.6643 63.6885 72.5612 63.8332 72.4258C63.9778 72.2904 64.0871 72.1226 64.161 71.9226L65.7213 72.098C65.6228 72.5104 65.4351 72.8705 65.1581 73.1783C64.8842 73.483 64.5334 73.7199 64.1056 73.8892C63.6778 74.0554 63.1884 74.1385 62.6375 74.1385ZM67.2044 74V66.9091H68.8755V74H67.2044ZM68.0446 65.9027C67.7799 65.9027 67.5521 65.815 67.3613 65.6396C67.1705 65.4611 67.0751 65.2472 67.0751 64.9979C67.0751 64.7455 67.1705 64.5316 67.3613 64.3562C67.5521 64.1777 67.7799 64.0884 68.0446 64.0884C68.3123 64.0884 68.5401 64.1777 68.7278 64.3562C68.9186 64.5316 69.014 64.7455 69.014 64.9979C69.014 65.2472 68.9186 65.4611 68.7278 65.6396C68.5401 65.815 68.3123 65.9027 68.0446 65.9027ZM72.2652 64.5455V74H70.594V64.5455H72.2652ZM73.9837 74V66.9091H75.6548V74H73.9837ZM74.8239 65.9027C74.5592 65.9027 74.3314 65.815 74.1406 65.6396C73.9498 65.4611 73.8544 65.2472 73.8544 64.9979C73.8544 64.7455 73.9498 64.5316 74.1406 64.3562C74.3314 64.1777 74.5592 64.0884 74.8239 64.0884C75.0916 64.0884 75.3194 64.1777 75.5071 64.3562C75.6979 64.5316 75.7933 64.7455 75.7933 64.9979C75.7933 65.2472 75.6979 65.4611 75.5071 65.6396C75.3194 65.815 75.0916 65.9027 74.8239 65.9027ZM79.0445 69.8452V74H77.3733V66.9091H78.9706V68.114H79.0537C79.2168 67.717 79.4769 67.4015 79.8339 67.1676C80.194 66.9337 80.6387 66.8168 81.1681 66.8168C81.6574 66.8168 82.0837 66.9214 82.4468 67.1307C82.8131 67.34 83.0962 67.6431 83.2963 68.0401C83.4994 68.4371 83.5994 68.9188 83.5963 69.4851V74H81.9252V69.7436C81.9252 69.2696 81.8021 68.8988 81.5558 68.631C81.3127 68.3633 80.9757 68.2294 80.5448 68.2294C80.2525 68.2294 79.9924 68.294 79.7646 68.4233C79.54 68.5495 79.363 68.7326 79.2338 68.9727C79.1076 69.2127 79.0445 69.5036 79.0445 69.8452ZM88.379 76.8068C87.7789 76.8068 87.2633 76.7253 86.8325 76.5621C86.4016 76.4021 86.0554 76.1867 85.7938 75.9158C85.5322 75.645 85.3506 75.3449 85.249 75.0156L86.754 74.6509C86.8217 74.7894 86.9202 74.9264 87.0494 75.0618C87.1787 75.2003 87.3526 75.3142 87.5711 75.4034C87.7927 75.4957 88.0712 75.5419 88.4067 75.5419C88.8807 75.5419 89.2731 75.4265 89.5839 75.1957C89.8947 74.9679 90.0502 74.5924 90.0502 74.0692V72.7259H89.9671C89.8809 72.8982 89.7547 73.0752 89.5885 73.2567C89.4254 73.4383 89.2084 73.5907 88.9376 73.7138C88.6698 73.8369 88.3328 73.8984 87.9266 73.8984C87.3818 73.8984 86.8879 73.7707 86.4447 73.5153C86.0046 73.2567 85.6537 72.872 85.3921 72.3612C85.1336 71.8472 85.0044 71.204 85.0044 70.4315C85.0044 69.6528 85.1336 68.9957 85.3921 68.4602C85.6537 67.9216 86.0061 67.5138 86.4493 67.2369C86.8925 66.9568 87.3865 66.8168 87.9312 66.8168C88.3467 66.8168 88.6883 66.8875 88.9561 67.0291C89.2269 67.1676 89.4423 67.3353 89.6024 67.5323C89.7624 67.7262 89.884 67.9093 89.9671 68.0817H90.0594V66.9091H91.7075V74.1154C91.7075 74.7217 91.5628 75.2234 91.2735 75.6204C90.9842 76.0174 90.5887 76.3144 90.0871 76.5114C89.5854 76.7083 89.0161 76.8068 88.379 76.8068ZM88.3928 72.5874C88.7468 72.5874 89.0484 72.5012 89.2977 72.3288C89.547 72.1565 89.7362 71.9087 89.8655 71.5856C89.9948 71.2624 90.0594 70.8746 90.0594 70.4222C90.0594 69.976 89.9948 69.5851 89.8655 69.2496C89.7393 68.9142 89.5516 68.6541 89.3023 68.4695C89.0561 68.2817 88.7529 68.1879 88.3928 68.1879C88.0204 68.1879 87.7096 68.2848 87.4603 68.4787C87.211 68.6726 87.0233 68.9388 86.8971 69.2773C86.7709 69.6128 86.7078 69.9944 86.7078 70.4222C86.7078 70.8562 86.7709 71.2363 86.8971 71.5625C87.0264 71.8857 87.2156 72.138 87.4649 72.3196C87.7173 72.4981 88.0266 72.5874 88.3928 72.5874ZM99.0246 68.7834L97.5012 68.9496C97.4581 68.7957 97.3827 68.651 97.2749 68.5156C97.1703 68.3802 97.0287 68.271 96.8502 68.1879C96.6717 68.1048 96.4532 68.0632 96.1947 68.0632C95.8469 68.0632 95.5545 68.1386 95.3176 68.2894C95.0837 68.4402 94.9682 68.6357 94.9713 68.8757C94.9682 69.0819 95.0436 69.2496 95.1975 69.3789C95.3545 69.5082 95.613 69.6143 95.9731 69.6974L97.1826 69.956C97.8535 70.1006 98.3521 70.3299 98.6784 70.6438C99.0077 70.9577 99.1739 71.3686 99.1769 71.8764C99.1739 72.3227 99.0431 72.7166 98.7845 73.0582C98.5291 73.3968 98.1736 73.6615 97.7181 73.8523C97.2626 74.0431 96.7394 74.1385 96.1485 74.1385C95.2806 74.1385 94.582 73.9569 94.0526 73.5938C93.5233 73.2275 93.2078 72.7182 93.1063 72.0657L94.7359 71.9087C94.8097 72.2288 94.9667 72.4704 95.2068 72.6335C95.4468 72.7966 95.7592 72.8782 96.1439 72.8782C96.5409 72.8782 96.8595 72.7966 97.0995 72.6335C97.3427 72.4704 97.4642 72.2688 97.4642 72.0288C97.4642 71.8256 97.3857 71.6579 97.2288 71.5256C97.0749 71.3932 96.8348 71.2917 96.5086 71.2209L95.2991 70.967C94.6189 70.8254 94.1157 70.5869 93.7895 70.2514C93.4633 69.9129 93.3017 69.4851 93.3048 68.968C93.3017 68.531 93.4202 68.1525 93.6602 67.8324C93.9034 67.5092 94.2404 67.2599 94.6713 67.0845C95.1052 66.906 95.6053 66.8168 96.1716 66.8168C97.0026 66.8168 97.6566 66.9937 98.1336 67.3477C98.6137 67.7016 98.9107 68.1802 99.0246 68.7834Z" fill="white"/>
</svg>
