<svg width="144" height="129" viewBox="0 0 144 129" fill="none" xmlns="http://www.w3.org/2000/svg">
<rect x="1.5" y="13.5" width="103" height="114" stroke="white" stroke-width="3"/>
<rect x="8.5" y="8.5" width="103" height="114" stroke="white" stroke-width="3"/>
<rect x="15.5" y="1.5" width="103" height="114" stroke="white" stroke-width="3"/>
<rect x="15.5" y="1.5" width="103" height="114" stroke="white" stroke-opacity="0.2" stroke-width="3"/>
<path d="M20.8849 70V59.8182H23.0376V64.0192H27.4077V59.8182H29.5554V70H27.4077V65.794H23.0376V70H20.8849ZM35.1733 66.4602H37.0028L37.9226 67.6435L38.8274 68.6974L40.5327 70.8352H38.5241L37.3509 69.3935L36.7493 68.5384L35.1733 66.4602ZM40.6868 64.9091C40.6868 66.0194 40.4763 66.964 40.0554 67.7429C39.6378 68.5218 39.0677 69.1167 38.3452 69.5277C37.6259 69.9354 36.8172 70.1392 35.919 70.1392C35.0142 70.1392 34.2022 69.9337 33.483 69.5227C32.7637 69.1117 32.1953 68.5168 31.7777 67.7379C31.3601 66.959 31.1513 66.0161 31.1513 64.9091C31.1513 63.7988 31.3601 62.8542 31.7777 62.0753C32.1953 61.2964 32.7637 60.7031 33.483 60.2955C34.2022 59.8845 35.0142 59.679 35.919 59.679C36.8172 59.679 37.6259 59.8845 38.3452 60.2955C39.0677 60.7031 39.6378 61.2964 40.0554 62.0753C40.4763 62.8542 40.6868 63.7988 40.6868 64.9091ZM38.5043 64.9091C38.5043 64.1899 38.3965 63.5833 38.1811 63.0895C37.969 62.5956 37.669 62.2211 37.2812 61.9659C36.8935 61.7107 36.4394 61.5831 35.919 61.5831C35.3987 61.5831 34.9446 61.7107 34.5568 61.9659C34.169 62.2211 33.8674 62.5956 33.652 63.0895C33.4399 63.5833 33.3338 64.1899 33.3338 64.9091C33.3338 65.6283 33.4399 66.2348 33.652 66.7287C33.8674 67.2225 34.169 67.5971 34.5568 67.8523C34.9446 68.1075 35.3987 68.2351 35.919 68.2351C36.4394 68.2351 36.8935 68.1075 37.2812 67.8523C37.669 67.5971 37.969 67.2225 38.1811 66.7287C38.3965 66.2348 38.5043 65.6283 38.5043 64.9091ZM54.5053 63.3828H52.3278C52.288 63.1011 52.2068 62.8509 52.0842 62.6321C51.9615 62.41 51.8041 62.2211 51.6119 62.0653C51.4196 61.9096 51.1976 61.7902 50.9457 61.7074C50.6971 61.6245 50.427 61.5831 50.1353 61.5831C49.6083 61.5831 49.1493 61.714 48.7582 61.9759C48.3671 62.2344 48.0638 62.6122 47.8484 63.1094C47.6329 63.6032 47.5252 64.2031 47.5252 64.9091C47.5252 65.6349 47.6329 66.2448 47.8484 66.7386C48.0671 67.2325 48.372 67.6054 48.7631 67.8572C49.1542 68.1091 49.6067 68.2351 50.1204 68.2351C50.4087 68.2351 50.6755 68.197 50.9208 68.1207C51.1694 68.0445 51.3898 67.9335 51.582 67.7876C51.7743 67.6385 51.9334 67.4579 52.0593 67.2457C52.1886 67.0336 52.2781 66.7917 52.3278 66.5199L54.5053 66.5298C54.449 66.9972 54.3081 67.4479 54.0827 67.8821C53.8607 68.313 53.5607 68.6991 53.1829 69.0405C52.8084 69.3786 52.3609 69.647 51.8406 69.8459C51.3235 70.0414 50.7385 70.1392 50.0856 70.1392C49.1774 70.1392 48.3654 69.9337 47.6495 69.5227C46.9369 69.1117 46.3735 68.5168 45.9592 67.7379C45.5482 66.959 45.3427 66.0161 45.3427 64.9091C45.3427 63.7988 45.5515 62.8542 45.9691 62.0753C46.3867 61.2964 46.9535 60.7031 47.6694 60.2955C48.3853 59.8845 49.1907 59.679 50.0856 59.679C50.6755 59.679 51.2224 59.7618 51.7262 59.9276C52.2333 60.0933 52.6824 60.3352 53.0735 60.6534C53.4646 60.9683 53.7828 61.3544 54.0281 61.8118C54.2766 62.2692 54.4357 62.7929 54.5053 63.3828ZM59.4893 70.1491C58.7038 70.1491 58.0277 69.9901 57.4609 69.6719C56.8975 69.3504 56.4633 68.8963 56.1584 68.3097C55.8535 67.7197 55.701 67.022 55.701 66.2166C55.701 65.4311 55.8535 64.7417 56.1584 64.1484C56.4633 63.5552 56.8925 63.0928 57.446 62.7614C58.0028 62.4299 58.6558 62.2642 59.4048 62.2642C59.9086 62.2642 60.3776 62.3454 60.8118 62.5078C61.2493 62.6669 61.6304 62.9072 61.9553 63.2287C62.2834 63.5502 62.5386 63.9545 62.7209 64.4418C62.9032 64.9257 62.9943 65.4924 62.9943 66.142V66.7237H56.5462V65.4112H61.0007C61.0007 65.1063 60.9344 64.8362 60.8018 64.6009C60.6693 64.3655 60.4853 64.1816 60.25 64.049C60.018 63.9131 59.7479 63.8452 59.4396 63.8452C59.1181 63.8452 58.8331 63.9197 58.5845 64.0689C58.3393 64.2147 58.147 64.4119 58.0078 64.6605C57.8686 64.9058 57.7973 65.1792 57.794 65.4808V66.7287C57.794 67.1065 57.8636 67.433 58.0028 67.7081C58.1454 67.9832 58.3459 68.1953 58.6044 68.3445C58.8629 68.4936 59.1695 68.5682 59.5241 68.5682C59.7595 68.5682 59.9749 68.535 60.1705 68.4688C60.366 68.4025 60.5334 68.303 60.6726 68.1705C60.8118 68.0379 60.9179 67.8755 60.9908 67.6832L62.9496 67.8125C62.8501 68.2831 62.6463 68.6941 62.3381 69.0455C62.0331 69.3935 61.6387 69.6652 61.1548 69.8608C60.6742 70.053 60.1191 70.1491 59.4893 70.1491ZM64.3764 70V62.3636H66.4943V70H64.3764ZM65.4403 61.3793C65.1255 61.3793 64.8554 61.2749 64.63 61.0661C64.4079 60.8539 64.2969 60.6004 64.2969 60.3054C64.2969 60.0137 64.4079 59.7635 64.63 59.5547C64.8554 59.3426 65.1255 59.2365 65.4403 59.2365C65.7552 59.2365 66.0237 59.3426 66.2457 59.5547C66.4711 59.7635 66.5838 60.0137 66.5838 60.3054C66.5838 60.6004 66.4711 60.8539 66.2457 61.0661C66.0237 61.2749 65.7552 61.3793 65.4403 61.3793ZM70.3088 59.8182V70H68.1909V59.8182H70.3088ZM72.0053 70V62.3636H74.1232V70H72.0053ZM73.0692 61.3793C72.7544 61.3793 72.4843 61.2749 72.2589 61.0661C72.0368 60.8539 71.9258 60.6004 71.9258 60.3054C71.9258 60.0137 72.0368 59.7635 72.2589 59.5547C72.4843 59.3426 72.7544 59.2365 73.0692 59.2365C73.3841 59.2365 73.6526 59.3426 73.8746 59.5547C74.1 59.7635 74.2127 60.0137 74.2127 60.3054C74.2127 60.6004 74.1 60.8539 73.8746 61.0661C73.6526 61.2749 73.3841 61.3793 73.0692 61.3793ZM77.9377 65.5852V70H75.8198V62.3636H77.8382V63.7109H77.9277C78.0968 63.2668 78.3801 62.9155 78.7779 62.657C79.1756 62.3951 79.6578 62.2642 80.2246 62.2642C80.7549 62.2642 81.2173 62.3802 81.6117 62.6122C82.0061 62.8442 82.3127 63.1757 82.5314 63.6065C82.7502 64.0341 82.8596 64.5445 82.8596 65.1378V70H80.7417V65.5156C80.745 65.0483 80.6257 64.6837 80.3837 64.4219C80.1417 64.1567 79.8087 64.0241 79.3844 64.0241C79.0994 64.0241 78.8475 64.0855 78.6287 64.2081C78.4133 64.3307 78.2443 64.5097 78.1216 64.745C78.0023 64.977 77.941 65.2571 77.9377 65.5852ZM87.9691 73.0227C87.283 73.0227 86.6947 72.9283 86.2042 72.7393C85.717 72.5537 85.3292 72.3002 85.0408 71.9787C84.7525 71.6572 84.5652 71.2959 84.479 70.8949L86.4379 70.6314C86.4975 70.7839 86.592 70.9264 86.7212 71.0589C86.8505 71.1915 87.0212 71.2976 87.2333 71.3771C87.4487 71.46 87.7106 71.5014 88.0188 71.5014C88.4795 71.5014 88.859 71.3887 89.1573 71.1634C89.4589 70.9413 89.6097 70.5684 89.6097 70.0447V68.6477H89.5202C89.4274 68.8598 89.2882 69.0604 89.1026 69.2493C88.917 69.4382 88.6784 69.5923 88.3867 69.7116C88.0951 69.831 87.747 69.8906 87.3427 69.8906C86.7693 69.8906 86.2473 69.758 85.7766 69.4929C85.3093 69.2244 84.9364 68.8151 84.658 68.2649C84.3829 67.7114 84.2454 67.0121 84.2454 66.1669C84.2454 65.3018 84.3862 64.5793 84.668 63.9993C84.9497 63.4193 85.3242 62.9851 85.7915 62.6967C86.2622 62.4084 86.7776 62.2642 87.3377 62.2642C87.7653 62.2642 88.1232 62.3371 88.4116 62.483C88.6999 62.6255 88.9319 62.8045 89.1076 63.0199C89.2866 63.232 89.4241 63.4408 89.5202 63.6463H89.5998V62.3636H91.7028V70.0746C91.7028 70.7242 91.5437 71.2678 91.2255 71.7053C90.9073 72.1428 90.4665 72.4709 89.9031 72.6896C89.3429 72.9117 88.6983 73.0227 87.9691 73.0227ZM88.0138 68.2997C88.3552 68.2997 88.6436 68.2152 88.8789 68.0462C89.1175 67.8738 89.2998 67.6286 89.4258 67.3104C89.555 66.9889 89.6197 66.6044 89.6197 66.157C89.6197 65.7095 89.5567 65.3217 89.4308 64.9936C89.3048 64.6622 89.1225 64.4053 88.8839 64.223C88.6452 64.0407 88.3552 63.9496 88.0138 63.9496C87.6658 63.9496 87.3725 64.044 87.1339 64.233C86.8952 64.4186 86.7146 64.6771 86.592 65.0085C86.4693 65.34 86.408 65.7228 86.408 66.157C86.408 66.5978 86.4693 66.9789 86.592 67.3004C86.7179 67.6186 86.8986 67.8655 87.1339 68.0412C87.3725 68.2135 87.6658 68.2997 88.0138 68.2997ZM99.7418 64.5412L97.8029 64.6605C97.7698 64.4948 97.6985 64.3456 97.5891 64.2131C97.4798 64.0772 97.3356 63.9695 97.1566 63.8899C96.9809 63.8071 96.7705 63.7656 96.5252 63.7656C96.1971 63.7656 95.9203 63.8352 95.695 63.9744C95.4696 64.1103 95.3569 64.2926 95.3569 64.5213C95.3569 64.7036 95.4298 64.8577 95.5756 64.9837C95.7215 65.1096 95.9717 65.2107 96.3263 65.2869L97.7085 65.5653C98.4509 65.7178 99.0044 65.9631 99.369 66.3011C99.7335 66.6392 99.9158 67.0833 99.9158 67.6335C99.9158 68.134 99.7683 68.5732 99.4734 68.951C99.1817 69.3288 98.7807 69.6238 98.2702 69.8359C97.7631 70.0447 97.1781 70.1491 96.5153 70.1491C95.5044 70.1491 94.699 69.9387 94.0991 69.5178C93.5025 69.0935 93.1528 68.5168 93.0501 67.7876L95.1332 67.6783C95.1961 67.9865 95.3486 68.2218 95.5906 68.3842C95.8325 68.5433 96.1424 68.6229 96.5202 68.6229C96.8915 68.6229 97.1897 68.5516 97.4151 68.4091C97.6438 68.2633 97.7598 68.076 97.7631 67.8473C97.7598 67.6551 97.6786 67.4976 97.5195 67.375C97.3604 67.2491 97.1152 67.1529 96.7837 67.0866L95.4613 66.8232C94.7156 66.674 94.1604 66.4155 93.7958 66.0476C93.4345 65.6797 93.2539 65.2107 93.2539 64.6406C93.2539 64.1501 93.3865 63.7275 93.6516 63.3729C93.9201 63.0182 94.2963 62.7448 94.7802 62.5526C95.2674 62.3603 95.8375 62.2642 96.4904 62.2642C97.4549 62.2642 98.2139 62.468 98.7674 62.8757C99.3242 63.2834 99.649 63.8385 99.7418 64.5412Z" fill="white"/>
</svg>
