<?xml version="1.0" encoding="utf-8"?>
<!-- Generator: Adobe Illustrator 25.2.0, SVG Export Plug-In . SVG Version: 6.00 Build 0)  -->
<svg version="1.1" id="Layer_1" xmlns="http://www.w3.org/2000/svg" xmlns:xlink="http://www.w3.org/1999/xlink" x="0px" y="0px"
	 viewBox="0 0 244.9 80.9" style="enable-background:new 0 0 244.9 80.9;" xml:space="preserve">
<style type="text/css">
	.st0{fill:#FFFFFF;}
</style>
<path class="st0" d="M39.7,0.9h28.7c11,0,20,9.6,20,21.3c0,6.8,0,13.5,0,20.3c0,2.3-0.4,4.5-1,6.6l21.1,14.1c-7.6,0-15.1,0-22.7,0
	c-4.6-3.4-9.2-6.8-13.8-10.3l-5.2-3.9c9.3,0.1,7.7-0.3,7.7-14.3h0c0-0.7,0-1.5,0-2.3V22.2c0-3.6-2.8-6.6-6.2-6.6H39.7
	c-3.4,0-6.2,3-6.2,6.6v2.5l-12.8-9.3C23.4,7,30.9,0.9,39.7,0.9z M13.2,1.4H1.5l11.6,8.5V1.4z"/>
<path class="st0" d="M5.3,79c0.6,0,1.1-0.1,1.5-0.2c0.4-0.1,0.8-0.3,1.2-0.6c0.4-0.3,0.7-0.6,1-0.9l-1-1.1c-0.3,0.3-0.5,0.5-0.8,0.7
	c-0.3,0.2-0.5,0.3-0.9,0.4c-0.3,0.1-0.6,0.2-1,0.2c-0.4,0-0.9-0.1-1.2-0.3c-0.4-0.2-0.7-0.4-1-0.8c-0.3-0.3-0.5-0.7-0.6-1.1
	c-0.2-0.4-0.2-0.9-0.2-1.4v0c0-0.5,0.1-0.9,0.2-1.4c0.1-0.4,0.4-0.8,0.6-1.1c0.3-0.3,0.6-0.6,1-0.7c0.4-0.2,0.8-0.3,1.2-0.3
	c0.4,0,0.7,0.1,1,0.2c0.3,0.1,0.6,0.2,0.8,0.4c0.3,0.2,0.5,0.4,0.8,0.6l1-1.3c-0.3-0.3-0.6-0.6-1-0.8c-0.3-0.2-0.7-0.4-1.2-0.5
	c-0.4-0.1-0.9-0.2-1.5-0.2c-0.6,0-1.1,0.1-1.6,0.3c-0.5,0.2-0.9,0.4-1.3,0.7c-0.4,0.3-0.7,0.7-1,1.1c-0.3,0.4-0.5,0.9-0.6,1.4
	c-0.1,0.5-0.2,1-0.2,1.6v0c0,0.6,0.1,1.1,0.2,1.6c0.2,0.5,0.4,1,0.6,1.4c0.3,0.4,0.6,0.8,1,1.1c0.4,0.3,0.8,0.5,1.3,0.7
	C4.2,78.9,4.7,79,5.3,79L5.3,79z M14.8,79c0.6,0,1.1-0.1,1.6-0.3c0.5-0.2,0.9-0.4,1.3-0.7c0.4-0.3,0.7-0.7,1-1.1
	c0.3-0.4,0.5-0.9,0.7-1.4c0.2-0.5,0.2-1,0.2-1.6v0c0-0.6-0.1-1.1-0.2-1.6c-0.2-0.5-0.4-1-0.7-1.4c-0.3-0.4-0.6-0.8-1-1.1
	c-0.4-0.3-0.8-0.6-1.3-0.7c-0.5-0.2-1-0.3-1.6-0.3c-0.6,0-1.1,0.1-1.6,0.3c-0.5,0.2-0.9,0.4-1.3,0.7c-0.4,0.3-0.7,0.7-1,1.1
	c-0.3,0.4-0.5,0.9-0.7,1.4c-0.2,0.5-0.2,1-0.2,1.6v0c0,0.6,0.1,1.1,0.2,1.6c0.2,0.5,0.4,1,0.7,1.4c0.3,0.4,0.6,0.8,1,1.1
	c0.4,0.3,0.8,0.6,1.3,0.7C13.7,78.9,14.2,79,14.8,79z M14.8,77.4c-0.5,0-0.9-0.1-1.3-0.3c-0.4-0.2-0.7-0.4-1-0.8
	c-0.3-0.3-0.5-0.7-0.7-1.1c-0.2-0.4-0.2-0.9-0.2-1.4v0c0-0.5,0.1-0.9,0.2-1.3c0.2-0.4,0.4-0.8,0.6-1.1c0.3-0.3,0.6-0.6,1-0.7
	c0.4-0.2,0.8-0.3,1.3-0.3c0.5,0,0.9,0.1,1.3,0.3c0.4,0.2,0.7,0.4,1,0.8c0.3,0.3,0.5,0.7,0.7,1.1c0.2,0.4,0.2,0.9,0.2,1.4v0
	c0,0.5-0.1,0.9-0.2,1.4c-0.2,0.4-0.4,0.8-0.6,1.1c-0.3,0.3-0.6,0.6-1,0.7C15.7,77.3,15.3,77.4,14.8,77.4z M21.6,78.8h1.6v-7l5.1,7
	h1.4V69H28v6.8l-5-6.8h-1.5V78.8z M35.2,78.9c0.5,0,0.9-0.1,1.3-0.2c0.4-0.1,0.8-0.3,1-0.6c0.3-0.3,0.5-0.6,0.7-0.9
	c0.2-0.4,0.2-0.8,0.2-1.2v0c0-0.4-0.1-0.8-0.2-1.1c-0.1-0.3-0.3-0.6-0.6-0.8c-0.2-0.2-0.6-0.4-0.9-0.6c-0.4-0.2-0.8-0.3-1.3-0.4
	c-0.4-0.1-0.8-0.2-1.1-0.3c-0.3-0.1-0.5-0.2-0.7-0.3c-0.2-0.1-0.3-0.2-0.3-0.4c-0.1-0.1-0.1-0.3-0.1-0.5v0c0-0.2,0.1-0.4,0.2-0.6
	c0.1-0.2,0.3-0.3,0.5-0.4c0.2-0.1,0.5-0.2,0.8-0.2c0.4,0,0.8,0.1,1.3,0.3c0.4,0.2,0.8,0.4,1.3,0.8l0.9-1.3c-0.5-0.4-1-0.7-1.5-0.9
	c-0.6-0.2-1.2-0.3-1.8-0.3c-0.5,0-0.9,0.1-1.3,0.2c-0.4,0.1-0.7,0.3-1,0.6c-0.3,0.3-0.5,0.6-0.7,0.9c-0.2,0.3-0.2,0.7-0.2,1.2v0
	c0,0.5,0.1,0.8,0.2,1.2c0.1,0.3,0.3,0.6,0.6,0.8c0.3,0.2,0.6,0.4,1,0.6c0.4,0.2,0.8,0.3,1.3,0.4c0.4,0.1,0.8,0.2,1.1,0.3
	c0.3,0.1,0.5,0.2,0.6,0.3c0.2,0.1,0.3,0.2,0.3,0.4c0.1,0.1,0.1,0.3,0.1,0.5v0c0,0.3-0.1,0.5-0.2,0.6c-0.1,0.2-0.3,0.3-0.6,0.4
	c-0.2,0.1-0.5,0.1-0.9,0.2c-0.4,0-0.7-0.1-1.1-0.1c-0.3-0.1-0.7-0.2-1-0.4c-0.3-0.2-0.6-0.4-0.9-0.7l-1,1.2c0.6,0.5,1.2,0.9,1.8,1.2
	C33.8,78.8,34.5,78.9,35.2,78.9z M42.4,78.8H44v-8.2H47V69h-7.5v1.6h2.9V78.8L42.4,78.8z M48.6,78.8h1.6v-3.4h2h0l2.3,3.4h1.9
	L54,75.1c0.4-0.1,0.8-0.3,1.1-0.6c0.3-0.3,0.6-0.6,0.8-1c0.2-0.4,0.3-0.9,0.3-1.4v0c0-0.4-0.1-0.8-0.2-1.2c-0.1-0.4-0.3-0.7-0.6-0.9
	c-0.3-0.3-0.7-0.6-1.1-0.7c-0.5-0.2-1-0.3-1.6-0.3h-4.1V78.8L48.6,78.8z M50.2,73.8v-3.3h2.4c0.4,0,0.7,0.1,1,0.2
	c0.3,0.1,0.5,0.3,0.7,0.6c0.2,0.2,0.2,0.5,0.2,0.9v0c0,0.3-0.1,0.6-0.2,0.9c-0.2,0.2-0.4,0.4-0.7,0.6c-0.3,0.1-0.6,0.2-1,0.2H50.2z
	 M61.9,79c0.6,0,1.2-0.1,1.6-0.3c0.5-0.2,0.9-0.5,1.3-0.8c0.3-0.4,0.6-0.8,0.8-1.4c0.2-0.6,0.3-1.2,0.3-1.9V69h-1.6v5.7
	c0,0.6-0.1,1.1-0.3,1.5c-0.2,0.4-0.5,0.7-0.8,0.9c-0.3,0.2-0.8,0.3-1.2,0.3c-0.5,0-0.9-0.1-1.3-0.3c-0.3-0.2-0.6-0.5-0.8-0.9
	c-0.2-0.4-0.3-0.9-0.3-1.5V69h-1.6v5.7c0,0.7,0.1,1.3,0.3,1.9c0.2,0.5,0.4,1,0.8,1.4c0.3,0.4,0.8,0.6,1.2,0.8
	C60.7,78.9,61.3,79,61.9,79L61.9,79z M72.3,79c0.6,0,1.1-0.1,1.5-0.2c0.4-0.1,0.8-0.3,1.2-0.6c0.4-0.3,0.7-0.6,1-0.9l-1-1.1
	c-0.3,0.3-0.5,0.5-0.8,0.7c-0.3,0.2-0.6,0.3-0.9,0.4c-0.3,0.1-0.6,0.2-1,0.2c-0.4,0-0.9-0.1-1.2-0.3c-0.4-0.2-0.7-0.4-1-0.8
	c-0.3-0.3-0.5-0.7-0.6-1.1c-0.2-0.4-0.2-0.9-0.2-1.4v0c0-0.5,0.1-0.9,0.2-1.4c0.1-0.4,0.4-0.8,0.6-1.1c0.3-0.3,0.6-0.6,1-0.7
	c0.4-0.2,0.8-0.3,1.2-0.3c0.4,0,0.7,0.1,1,0.2c0.3,0.1,0.6,0.2,0.8,0.4c0.3,0.2,0.5,0.4,0.8,0.6l1-1.3c-0.3-0.3-0.6-0.6-1-0.8
	c-0.3-0.2-0.7-0.4-1.2-0.5c-0.4-0.1-0.9-0.2-1.5-0.2c-0.6,0-1.1,0.1-1.6,0.3c-0.5,0.2-0.9,0.4-1.3,0.7c-0.4,0.3-0.7,0.7-1,1.1
	c-0.3,0.4-0.5,0.9-0.6,1.4c-0.1,0.5-0.2,1-0.2,1.6v0c0,0.6,0.1,1.1,0.2,1.6c0.2,0.5,0.4,1,0.6,1.4c0.3,0.4,0.6,0.8,1,1.1
	c0.4,0.3,0.8,0.5,1.3,0.7C71.3,78.9,71.8,79,72.3,79L72.3,79z M80,78.8h1.6v-8.2h2.9V69H77v1.6H80V78.8L80,78.8z M86.3,78.8h1.6V69
	h-1.6V78.8z M94.7,79c0.6,0,1.1-0.1,1.6-0.3c0.5-0.2,0.9-0.4,1.3-0.7c0.4-0.3,0.7-0.7,1-1.1c0.3-0.4,0.5-0.9,0.7-1.4
	c0.1-0.5,0.2-1,0.2-1.6v0c0-0.6-0.1-1.1-0.2-1.6c-0.2-0.5-0.4-1-0.7-1.4c-0.3-0.4-0.6-0.8-1-1.1c-0.4-0.3-0.8-0.6-1.3-0.7
	c-0.5-0.2-1-0.3-1.6-0.3c-0.6,0-1.1,0.1-1.6,0.3c-0.5,0.2-0.9,0.4-1.3,0.7c-0.4,0.3-0.7,0.7-1,1.1c-0.3,0.4-0.5,0.9-0.7,1.4
	c-0.2,0.5-0.2,1-0.2,1.6v0c0,0.6,0.1,1.1,0.2,1.6c0.2,0.5,0.4,1,0.7,1.4c0.3,0.4,0.6,0.8,1,1.1c0.4,0.3,0.8,0.6,1.3,0.7
	C93.6,78.9,94.2,79,94.7,79L94.7,79z M94.8,77.4c-0.5,0-0.9-0.1-1.3-0.3c-0.4-0.2-0.7-0.4-1-0.8c-0.3-0.3-0.5-0.7-0.7-1.1
	c-0.2-0.4-0.2-0.9-0.2-1.4v0c0-0.5,0.1-0.9,0.2-1.3c0.1-0.4,0.4-0.8,0.6-1.1c0.3-0.3,0.6-0.6,1-0.7c0.4-0.2,0.8-0.3,1.3-0.3
	c0.5,0,0.9,0.1,1.3,0.3c0.4,0.2,0.7,0.4,1,0.8c0.3,0.3,0.5,0.7,0.7,1.1c0.2,0.4,0.2,0.9,0.2,1.4v0c0,0.5-0.1,0.9-0.2,1.4
	c-0.1,0.4-0.4,0.8-0.6,1.1c-0.3,0.3-0.6,0.6-1,0.7C95.6,77.3,95.2,77.4,94.8,77.4z M101.5,78.8h1.6v-7l5.1,7h1.4V69h-1.6v6.8l-5-6.8
	h-1.5V78.8z"/>
<path class="st0" d="M75,62.9c-1.8,0.6-3.7,0.9-5.7,0.9H40.7c-11,0-20-9.6-20-21.3V23.6l13.8,10v8.9c0,3.6,2.8,6.6,6.2,6.6h15.2
	L75,62.9z M1.2,9.6V63h12.9V18.9L1.2,9.6z"/>
</svg>
